<svg width="26" height="24" viewBox="0 0 26 24" fill="none" xmlns="http://www.w3.org/2000/svg">
<path d="M11.9648 3C16.9131 3 20.9297 7.02539 20.9297 11.9648C20.9297 16.9131 16.9131 20.9297 11.9648 20.9297C7.02539 20.9297 3 16.9131 3 11.9648C3 7.02539 7.02539 3 11.9648 3ZM11.9648 6.50684C10.8311 6.50684 9.89062 7.42969 9.89062 8.57227C9.89062 9.50391 10.5059 10.2773 11.332 10.5322V15.0762C11.332 16.4033 11.5518 17.5986 11.9648 17.5986C12.3867 17.5986 12.5889 16.4297 12.5889 15.0762V10.5322C13.4238 10.2861 14.0391 9.5127 14.0391 8.57227C14.0391 7.42969 13.1074 6.50684 11.9648 6.50684ZM11.4287 7.37695C11.7891 7.37695 12.0879 7.68457 12.0879 8.04492C12.0879 8.39648 11.7891 8.7041 11.4287 8.7041C11.0859 8.7041 10.7783 8.39648 10.7783 8.04492C10.7695 7.68457 11.0859 7.37695 11.4287 7.37695Z" fill="black"/>
</svg>
