<svg width="26" height="26" viewBox="0 0 26 26" fill="none" xmlns="http://www.w3.org/2000/svg">
<path d="M12.0576 3.02325C17.0442 3.02325 21.0919 7.07098 21.0919 12.0576C21.0919 17.0353 17.0442 21.0919 12.0576 21.0919C7.07984 21.0919 3.02325 17.0353 3.02325 12.0576C3.02325 7.07098 7.07984 3.02325 12.0576 3.02325ZM15.0513 8.35527C14.8564 8.35527 14.697 8.41727 14.5464 8.56784L12.0576 11.039L9.58642 8.5767C9.4447 8.44384 9.28527 8.37299 9.08156 8.37299C8.67413 8.37299 8.35527 8.68299 8.35527 9.09927C8.35527 9.29413 8.42613 9.47128 8.56784 9.61299L11.0213 12.0664L8.56784 14.5287C8.42613 14.6616 8.35527 14.8476 8.35527 15.0424C8.35527 15.4499 8.67413 15.7776 9.08156 15.7776C9.28527 15.7776 9.47128 15.7067 9.61299 15.565L12.0576 13.1027L14.511 15.565C14.6439 15.7067 14.8299 15.7776 15.0336 15.7776C15.4499 15.7776 15.7776 15.4499 15.7776 15.0424C15.7776 14.8387 15.7067 14.6527 15.5562 14.5199L13.1027 12.0664L15.565 9.60413C15.7244 9.4447 15.7864 9.28527 15.7864 9.08156C15.7864 8.67413 15.4587 8.35527 15.0513 8.35527Z" fill="black"/>
</svg>
