<svg width="160" height="49" viewBox="0 0 160 49" fill="none" xmlns="http://www.w3.org/2000/svg">
<path d="M18.9121 25.0766V11.8674L14.7212 21.1558H11.0583L6.86736 11.8674V25.0766H0V0H7.50138L12.8898 11.7967L18.3132 0H25.7796V25.0766H18.9121Z" fill="#111111"/>
<path d="M30.0771 25.0766V0H36.9444V25.0766H30.0771Z" fill="#111111"/>
<path d="M48.1088 12.7504V25.0766H41.2409V0H46.5943L56.6317 12.7504V0H63.499V25.0766H58.0401L48.1088 12.7504Z" fill="#111111"/>
<path d="M67.7966 25.0766V0H77.4115C85.7229 0 90.0198 5.58042 90.0198 12.5026C90.0198 20.0963 85.0189 25.0766 77.4115 25.0766H67.7966ZM77.4115 6.0041H74.6645V19.0724H77.4115C81.004 19.0724 83.0464 16.2819 83.0464 12.5026C83.0464 8.6175 80.9335 6.0041 77.4115 6.0041Z" fill="#111111"/>
<path d="M110.87 19.0725V25.0766H93.0494V0H110.553V6.0041H99.9168V9.5362H109.003V15.1166H99.9168V19.0724L110.87 19.0725Z" fill="#111111"/>
<path d="M114.075 25.0766V0H125.556C130.451 0 133.973 4.41454 133.973 8.68826C133.973 11.5845 132.635 14.2687 130.381 15.8583L136.016 25.0766H128.268L123.513 17.3771H120.942V25.0766H114.075ZM120.943 11.3724H125.274C126.119 11.3724 127 10.3836 127 8.68826C127 6.95783 125.943 6.0041 125.098 6.0041H120.943V11.3724Z" fill="#111111"/>
<path d="M135.805 25.0766L145.138 0H150.703L160 25.0766H152.745L151.231 20.1671H144.574L143.095 25.0766H135.805ZM147.92 7.1694L145.596 15.576H150.139L147.92 7.1694Z" fill="#111111"/>
<path d="M92.6086 49V38.2967H99.0497V39.4464H93.901V43.063H98.7162V44.2128H93.901V47.8502H99.1331V49H92.6086Z" fill="#111111"/>
<path d="M90.0173 38.2967V49H88.7249V38.2967H90.0173Z" fill="#111111"/>
<path d="M80.112 49V38.2967H86.5114V39.4464H81.4044V43.063H86.032V44.2128H81.4044V49H80.112Z" fill="#111111"/>
<path d="M71.8574 49V38.2967H73.1498V47.8502H78.1109V49H71.8574Z" fill="#111111"/>
<path d="M62.3782 49H61.0233L64.9421 38.2967H66.2762L70.195 49H68.8401L65.6508 39.99H65.5675L62.3782 49ZM62.8785 44.819H68.3398V45.9688H62.8785V44.819Z" fill="#111111"/>
</svg>
