<svg width="24" height="24" viewBox="0 0 24 24" fill="none" xmlns="http://www.w3.org/2000/svg">
<path d="M9 13C9.53043 13 10.039 13.2109 10.4141 13.5859C10.7891 13.961 11 14.4696 11 15V19C11 19.5304 10.7891 20.039 10.4141 20.4141C10.039 20.7891 9.53043 21 9 21H5C4.46957 21 3.96101 20.7891 3.58594 20.4141C3.21087 20.039 3 19.5304 3 19V15C3 14.4696 3.21087 13.961 3.58594 13.5859C3.96101 13.2109 4.46957 13 5 13H9ZM19 13C19.5304 13 20.039 13.2109 20.4141 13.5859C20.7891 13.961 21 14.4696 21 15V19C21 19.5304 20.7891 20.039 20.4141 20.4141C20.039 20.7891 19.5304 21 19 21H15C14.4696 21 13.961 20.7891 13.5859 20.4141C13.2109 20.039 13 19.5304 13 19V15C13 14.4696 13.2109 13.961 13.5859 13.5859C13.961 13.2109 14.4696 13 15 13H19ZM9 3C9.53043 3 10.039 3.21087 10.4141 3.58594C10.7891 3.96101 11 4.46957 11 5V9C11 9.53043 10.7891 10.039 10.4141 10.4141C10.039 10.7891 9.53043 11 9 11H5C4.46957 11 3.96101 10.7891 3.58594 10.4141C3.21087 10.039 3 9.53043 3 9V5C3 4.46957 3.21087 3.96101 3.58594 3.58594C3.96101 3.21087 4.46957 3 5 3H9ZM19 3C19.5304 3 20.039 3.21087 20.4141 3.58594C20.7891 3.96101 21 4.46957 21 5V9C21 9.53043 20.7891 10.039 20.4141 10.4141C20.039 10.7891 19.5304 11 19 11H15C14.4696 11 13.961 10.7891 13.5859 10.4141C13.2109 10.039 13 9.53043 13 9V5C13 4.46957 13.2109 3.96101 13.5859 3.58594C13.961 3.21087 14.4696 3 15 3H19Z" fill="#111111"/>
</svg>
