<svg width="24" height="24" viewBox="0 0 24 24" fill="none" xmlns="http://www.w3.org/2000/svg">
<path fill-rule="evenodd" clip-rule="evenodd" d="M6 6C5.46957 6 4.96086 6.21071 4.58579 6.58579C4.21071 6.96086 4 7.46957 4 8V9H20V8C20 7.46957 19.7893 6.96086 19.4142 6.58579C19.0391 6.21071 18.5304 6 18 6H6ZM22 8C22 6.93913 21.5786 5.92172 20.8284 5.17157C20.0783 4.42143 19.0609 4 18 4H6C4.93913 4 3.92172 4.42143 3.17157 5.17157C2.42143 5.92172 2 6.93913 2 8V16C2 17.0609 2.42143 18.0783 3.17157 18.8284C3.92172 19.5786 4.93913 20 6 20H12C12.5523 20 13 19.5523 13 19C13 18.4477 12.5523 18 12 18H6C5.46957 18 4.96086 17.7893 4.58579 17.4142C4.21071 17.0391 4 16.5304 4 16V11H20V12.5C20 13.0523 20.4477 13.5 21 13.5C21.5523 13.5 22 13.0523 22 12.5V8ZM6 15C6 14.4477 6.44772 14 7 14H7.01C7.56228 14 8.01 14.4477 8.01 15C8.01 15.5523 7.56228 16 7.01 16H7C6.44772 16 6 15.5523 6 15ZM10 15C10 14.4477 10.4477 14 11 14H13C13.5523 14 14 14.4477 14 15C14 15.5523 13.5523 16 13 16H11C10.4477 16 10 15.5523 10 15ZM18.2929 15.2929C18.6834 14.9024 19.3166 14.9024 19.7071 15.2929C20.0976 15.6834 20.0976 16.3166 19.7071 16.7071L18.4142 18H22C22.5523 18 23 18.4477 23 19C23 19.5523 22.5523 20 22 20H18.4142L19.7071 21.2929C20.0976 21.6834 20.0976 22.3166 19.7071 22.7071C19.3166 23.0976 18.6834 23.0976 18.2929 22.7071L15.2929 19.7071C14.9024 19.3166 14.9024 18.6834 15.2929 18.2929L18.2929 15.2929Z" fill="#111111"/>
</svg>
