<svg width="24" height="24" viewBox="0 0 24 24" fill="none" xmlns="http://www.w3.org/2000/svg">
<path d="M10.9502 12L15.0502 7.89998C15.2335 7.71664 15.3252 7.50414 15.3252 7.26248C15.3252 7.02081 15.2335 6.80831 15.0502 6.62498C14.8669 6.44164 14.6544 6.34998 14.4127 6.34998C14.171 6.34998 13.9557 6.44448 13.7667 6.63348L9.0252 11.375C8.94186 11.465 8.87936 11.5625 8.8377 11.6675C8.79603 11.7725 8.7752 11.885 8.7752 12.005C8.7752 12.125 8.79603 12.2375 8.8377 12.3425C8.87936 12.4475 8.94186 12.5416 9.0252 12.625L13.7667 17.3665C13.9557 17.5555 14.1669 17.6458 14.4002 17.6375C14.6335 17.6291 14.8419 17.5333 15.0252 17.35C15.2085 17.1666 15.3002 16.9541 15.3002 16.7125C15.3002 16.4708 15.2085 16.2583 15.0252 16.075L10.9502 12Z" fill="#111111"/>
</svg>
