<svg width="26" height="24" viewBox="0 0 26 24" fill="none" xmlns="http://www.w3.org/2000/svg">
<path d="M3.71191 4C4.09863 4 4.41504 4.3252 4.41504 4.70312V6.7334L8.10645 10.4951C8.18555 10.583 8.26465 10.6182 8.34375 10.6182C8.42285 10.6182 8.50195 10.583 8.58105 10.4951L11.8154 7.18164C12.1934 6.78613 12.5889 6.60156 13.002 6.60156C13.4238 6.60156 13.8018 6.79492 14.1973 7.18164L17.7744 10.7852L19.2246 9.33496C19.541 9.01855 19.9541 9.21191 20.0684 9.66016L21.3691 14.8105C21.4746 15.2236 21.123 15.5488 20.7275 15.4434L15.5859 14.1514C15.1377 14.0283 14.9443 13.624 15.2607 13.3164L16.7197 11.8486L13.248 8.35059C13.1689 8.28027 13.0811 8.23633 13.002 8.23633C12.9316 8.23633 12.8438 8.27148 12.7646 8.35059L9.53027 11.6641C9.14355 12.0596 8.75684 12.2441 8.34375 12.2441C7.93066 12.2441 7.55273 12.0771 7.15723 11.6641L4.41504 8.87793V18.5986C4.41504 18.7832 4.47656 18.8447 4.66113 18.8447H21.1846C21.5713 18.8447 21.8965 19.1611 21.8965 19.5479C21.8965 19.9434 21.5713 20.251 21.1846 20.251H3.70312C3.28125 20.251 3 19.9785 3 19.5566V4.70312C3 4.3252 3.31641 4 3.71191 4Z" fill="black"/>
</svg>
