<svg width="24" height="24" viewBox="0 0 24 24" fill="none" xmlns="http://www.w3.org/2000/svg">
<path fill-rule="evenodd" clip-rule="evenodd" d="M10.5853 4.58579C10.9604 4.21071 11.4691 4 11.9995 4C12.5299 4 13.0386 4.21071 13.4137 4.58579C13.7888 4.96086 13.9995 5.46957 13.9995 6V7H9.99949V6C9.99949 5.46957 10.2102 4.96086 10.5853 4.58579ZM15.9995 6V7H17.6692C18.1017 6.99997 18.5292 7.09345 18.9222 7.27405C19.3153 7.45467 19.6646 7.71814 19.9463 8.0464C20.2279 8.37467 20.4353 8.75997 20.5541 9.17588C20.6729 9.59179 20.7004 10.0285 20.6347 10.456L19.3797 18.608C19.2344 19.5525 18.7557 20.414 18.0303 21.0362C17.305 21.6583 16.3809 22.0002 15.4253 22H8.5733C7.61783 22 6.69389 21.6579 5.96876 21.0357C5.24366 20.4136 4.7652 19.5525 4.61994 18.6082L3.36494 10.4562C3.2992 10.0286 3.32665 9.59179 3.44548 9.17588C3.5643 8.75997 3.77166 8.37467 4.05334 8.0464C4.33501 7.71814 4.68435 7.45467 5.07738 7.27405C5.47039 7.09345 5.89791 6.99997 6.33042 7H7.99949V6C7.99949 4.93913 8.42092 3.92172 9.17107 3.17157C9.92121 2.42143 10.9386 2 11.9995 2C13.0604 2 14.0778 2.42143 14.8279 3.17157C15.5781 3.92172 15.9995 4.93913 15.9995 6Z" fill="#111111"/>
</svg>
