<svg width="24" height="24" viewBox="0 0 24 24" fill="none" xmlns="http://www.w3.org/2000/svg">
<path d="M8.24277 7.34004L1.86277 8.26505L1.74977 8.28804C1.57871 8.33346 1.42276 8.42345 1.29786 8.54885C1.17296 8.67424 1.08357 8.83053 1.03883 9.00177C0.994087 9.17301 0.995593 9.35305 1.04319 9.52352C1.09079 9.69398 1.18278 9.84876 1.30977 9.97204L5.93177 14.471L4.84177 20.826L4.82877 20.936C4.81829 21.113 4.85503 21.2895 4.93522 21.4475C5.0154 21.6056 5.13615 21.7395 5.2851 21.8356C5.43405 21.9316 5.60585 21.9863 5.78291 21.9942C5.95997 22.002 6.13593 21.9626 6.29277 21.88L11.9988 18.88L17.6918 21.88L17.7918 21.926C17.9568 21.9911 18.1362 22.011 18.3115 21.9838C18.4868 21.9566 18.6517 21.8833 18.7894 21.7713C18.927 21.6593 19.0323 21.5128 19.0946 21.3467C19.1569 21.1806 19.1738 21.0009 19.1438 20.826L18.0528 14.471L22.6768 9.97104L22.7548 9.88604C22.8662 9.74881 22.9392 9.5845 22.9665 9.40984C22.9937 9.23518 22.9742 9.05642 22.9099 8.89178C22.8455 8.72713 22.7387 8.58248 22.6003 8.47256C22.4618 8.36264 22.2967 8.29138 22.1218 8.26604L15.7418 7.34004L12.8898 1.56004C12.8072 1.39258 12.6795 1.25156 12.521 1.15295C12.3624 1.05434 12.1795 1.00208 11.9928 1.00208C11.8061 1.00208 11.6231 1.05434 11.4646 1.15295C11.306 1.25156 11.1783 1.39258 11.0958 1.56004L8.24277 7.34004Z" fill="black"/>
</svg>
