<svg width="26" height="24" viewBox="0 0 26 24" fill="none" xmlns="http://www.w3.org/2000/svg">
<path d="M17.7852 2C18.9189 2 19.6045 2.66797 19.6045 3.78418V4.51367L21.9336 8.49512C22.1094 8.79395 22.1973 9.10156 22.1973 9.44434V9.59375C22.1973 10.7188 21.5908 11.6855 20.6855 12.2041V19.3232C20.6855 20.5537 19.9561 21.2656 18.708 21.2656H5.48926C4.24121 21.2656 3.51172 20.5537 3.51172 19.3232V12.2041C2.60645 11.6855 2 10.7188 2 9.59375V9.44434C2 9.10156 2.08789 8.79395 2.26367 8.49512L4.59277 4.51367V3.78418C4.59277 2.66797 5.28711 2 6.4209 2H17.7852ZM16.8271 11.4307C16.291 12.1426 15.4473 12.5908 14.4629 12.5908C13.4785 12.5908 12.626 12.1426 12.0986 11.4307C11.5713 12.1426 10.7188 12.5908 9.73438 12.5908C8.75879 12.5908 7.90625 12.1426 7.37891 11.4307C6.84277 12.1426 5.99023 12.5908 5.01465 12.5908H4.92676V18.9629C4.92676 19.5342 5.23438 19.8506 5.79688 19.8506H6.32422V14.9199C6.32422 14.5156 6.59668 14.252 7.00098 14.252H10.7275C11.1318 14.252 11.3955 14.5156 11.3955 14.9199V19.8506H18.4092C18.9717 19.8506 19.2705 19.5342 19.2705 18.9629V12.5908H19.1826C18.207 12.5908 17.3545 12.1426 16.8271 11.4307ZM17.293 13.7861C17.6973 13.7861 17.9521 14.041 17.9521 14.4541V16.9326C17.9521 17.3457 17.6973 17.6006 17.293 17.6006H13.7246C13.3115 17.6006 13.0479 17.3457 13.0479 16.9326V14.4541C13.0479 14.041 13.3115 13.7861 13.7246 13.7861H17.293ZM3.31836 10.165C3.51172 10.877 4.10938 11.3516 5.01465 11.3516C5.91992 11.3516 6.51758 10.877 6.71094 10.165H3.31836ZM8.04688 10.165C8.23145 10.877 8.83789 11.3516 9.73438 11.3516C10.6396 11.3516 11.2373 10.877 11.4307 10.165H8.04688ZM12.7666 10.165C12.96 10.877 13.5576 11.3516 14.4629 11.3516C15.3682 11.3516 15.9658 10.877 16.1592 10.165H12.7666ZM17.4951 10.165C17.6797 10.877 18.2861 11.3516 19.1826 11.3516C20.0879 11.3516 20.6855 10.877 20.8789 10.165H17.4951ZM3.52051 8.92578H20.6592L18.6992 5.56836H5.42773L3.52051 8.92578ZM6.60547 3.32715C6.1748 3.32715 5.91992 3.59082 5.91992 4.03027V4.24121H18.2773V4.03027C18.2773 3.59082 18.0225 3.32715 17.5918 3.32715H6.60547Z" fill="black"/>
</svg>
