<svg width="24" height="24" viewBox="0 0 24 24" fill="none" xmlns="http://www.w3.org/2000/svg">
<path d="M13.0498 12L8.9498 7.89998C8.76647 7.71664 8.6748 7.50414 8.6748 7.26248C8.6748 7.02081 8.76647 6.80831 8.9498 6.62498C9.13314 6.44164 9.34564 6.34998 9.5873 6.34998C9.82897 6.34998 10.0443 6.44448 10.2333 6.63348L14.9748 11.375C15.0581 11.465 15.1206 11.5625 15.1623 11.6675C15.204 11.7725 15.2248 11.885 15.2248 12.005C15.2248 12.125 15.204 12.2375 15.1623 12.3425C15.1206 12.4475 15.0581 12.5416 14.9748 12.625L10.2333 17.3665C10.0443 17.5555 9.83314 17.6458 9.5998 17.6375C9.36647 17.6291 9.15814 17.5333 8.9748 17.35C8.79147 17.1666 8.6998 16.9541 8.6998 16.7125C8.6998 16.4708 8.79147 16.2583 8.9748 16.075L13.0498 12Z" fill="#111111"/>
</svg>
