<svg width="24" height="24" viewBox="0 0 24 24" fill="none" xmlns="http://www.w3.org/2000/svg">
<path d="M4 19V11C4 10.2044 4.3163 9.44152 4.87891 8.87892C5.44151 8.31631 6.20435 8.00001 7 8.00001H8C8.55228 8.00001 9 8.44773 9 9.00001C9 9.55229 8.55228 10 8 10H7C6.73478 10 6.48051 10.1054 6.29297 10.293C6.10543 10.4805 6 10.7348 6 11V19C6 19.2652 6.10543 19.5195 6.29297 19.707C6.48051 19.8946 6.73478 20 7 20H17C17.2652 20 17.5195 19.8946 17.707 19.707C17.8946 19.5195 18 19.2652 18 19V11C18 10.7348 17.8946 10.4805 17.707 10.293C17.5195 10.1054 17.2652 10 17 10H16C15.4477 10 15 9.55229 15 9.00001C15 8.44773 15.4477 8.00001 16 8.00001H17C17.7956 8.00001 18.5585 8.31631 19.1211 8.87892C19.6837 9.44152 20 10.2044 20 11V19C20 19.7957 19.6837 20.5585 19.1211 21.1211C18.5585 21.6837 17.7956 22 17 22H7C6.20435 22 5.44151 21.6837 4.87891 21.1211C4.3163 20.5585 4 19.7957 4 19ZM11 14V5.41407L9.70703 6.70704C9.31651 7.09757 8.68349 7.09757 8.29297 6.70704C7.90244 6.31652 7.90244 5.6835 8.29297 5.29298L11.293 2.29298L11.3691 2.22462C11.7619 1.90427 12.3409 1.92686 12.707 2.29298L15.707 5.29298L15.7754 5.36915C16.0957 5.76192 16.0731 6.34093 15.707 6.70704C15.3409 7.07316 14.7619 7.09575 14.3691 6.7754L14.293 6.70704L13 5.41407V14C13 14.5523 12.5523 15 12 15C11.4477 15 11 14.5523 11 14Z" fill="#111111"/>
</svg>
