<svg width="24" height="24" viewBox="0 0 24 24" fill="none" xmlns="http://www.w3.org/2000/svg">
<path d="M12.0001 10.875L7.9001 14.975C7.71676 15.1583 7.50426 15.25 7.2626 15.25C7.02093 15.25 6.80843 15.1583 6.6251 14.975C6.44176 14.7917 6.3501 14.5792 6.3501 14.3375C6.3501 14.0958 6.44176 13.8833 6.6251 13.7L11.3751 8.94999C11.5584 8.76665 11.7668 8.67499 12.0001 8.67499C12.2334 8.67499 12.4418 8.76665 12.6251 8.94999L17.3751 13.7C17.5584 13.8833 17.6501 14.0917 17.6501 14.325C17.6501 14.5583 17.5584 14.7667 17.3751 14.95C17.1918 15.1333 16.9793 15.225 16.7376 15.225C16.4959 15.225 16.2834 15.1333 16.1001 14.95L12.0001 10.875Z" fill="#111111"/>
</svg>
