<svg width="24" height="24" viewBox="0 0 24 24" fill="none" xmlns="http://www.w3.org/2000/svg">
<path fill-rule="evenodd" clip-rule="evenodd" d="M2.58579 4.58579C2.96086 4.21071 3.46957 4 4 4H13C13.5523 4 14 4.44772 14 5H18C18.3513 5 18.6768 5.1843 18.8575 5.4855L21.8575 10.4855C21.9507 10.6409 22 10.8188 22 11V17C22 17.5523 21.5523 18 21 18H19.8284C19.6807 18.4179 19.4407 18.8019 19.1213 19.1213C18.5587 19.6839 17.7957 20 17 20C16.2043 20 15.4413 19.6839 14.8787 19.1213C14.5593 18.8019 14.3193 18.4179 14.1716 18H9.82843C9.68067 18.4179 9.44072 18.8019 9.12132 19.1213C8.55871 19.6839 7.79565 20 7 20C6.20435 20 5.44129 19.6839 4.87868 19.1213C4.55927 18.8019 4.31933 18.4179 4.17157 18H3C2.44772 18 2 17.5523 2 17V6C2 5.46957 2.21071 4.96086 2.58579 4.58579ZM4.17157 16C4.31933 15.5821 4.55927 15.1981 4.87868 14.8787C5.44129 14.3161 6.20435 14 7 14C7.79565 14 8.55871 14.3161 9.12132 14.8787C9.44072 15.1981 9.68067 15.5821 9.82843 16H14.1716C14.3193 15.5821 14.5593 15.1981 14.8787 14.8787C15.4413 14.3161 16.2043 14 17 14C17.7957 14 18.5587 14.3161 19.1213 14.8787C19.4407 15.1981 19.6807 15.5821 19.8284 16H20V11.277L17.4338 7H14V11C14 11.5523 13.5523 12 13 12H10.4142L10.7071 12.2929C11.0976 12.6834 11.0976 13.3166 10.7071 13.7071C10.3166 14.0976 9.68342 14.0976 9.29289 13.7071L7.29289 11.7071C6.90237 11.3166 6.90237 10.6834 7.29289 10.2929L9.29289 8.29289C9.68342 7.90237 10.3166 7.90237 10.7071 8.29289C11.0976 8.68342 11.0976 9.31658 10.7071 9.70711L10.4142 10H12V6L4 6V16H4.17157ZM7 16C6.73478 16 6.48043 16.1054 6.29289 16.2929C6.10536 16.4804 6 16.7348 6 17C6 17.2652 6.10536 17.5196 6.29289 17.7071C6.48043 17.8946 6.73478 18 7 18C7.26522 18 7.51957 17.8946 7.70711 17.7071C7.89464 17.5196 8 17.2652 8 17C8 16.7348 7.89464 16.4804 7.70711 16.2929C7.51957 16.1054 7.26522 16 7 16ZM17 16C16.7348 16 16.4804 16.1054 16.2929 16.2929C16.1054 16.4804 16 16.7348 16 17C16 17.2652 16.1054 17.5196 16.2929 17.7071C16.4804 17.8946 16.7348 18 17 18C17.2652 18 17.5196 17.8946 17.7071 17.7071C17.8946 17.5196 18 17.2652 18 17C18 16.7348 17.8946 16.4804 17.7071 16.2929C17.5196 16.1054 17.2652 16 17 16Z" fill="#111111"/>
</svg>
