<svg width="26" height="24" viewBox="0 0 26 24" fill="none" xmlns="http://www.w3.org/2000/svg">
<path d="M17.7656 4C19.6025 4 20.5166 4.91406 20.5166 6.72461V17.4561C20.5166 19.2666 19.6025 20.1807 17.7656 20.1807H5.75977C3.92285 20.1807 3 19.2754 3 17.4561V6.72461C3 4.90527 3.92285 4 5.75977 4H17.7656ZM5.62793 8.0166C4.8457 8.0166 4.41504 8.43848 4.41504 9.24707V17.5352C4.41504 18.3525 4.8457 18.7656 5.62793 18.7656H17.8799C18.6621 18.7656 19.1016 18.3525 19.1016 17.5352V9.24707C19.1016 8.43848 18.6621 8.0166 17.8799 8.0166H5.62793ZM13.0195 15.4961C13.3271 15.4961 13.5645 15.7422 13.5645 16.0498C13.5645 16.3486 13.3271 16.5771 13.0195 16.5771H7.15723C6.83203 16.5771 6.60352 16.3486 6.60352 16.0498C6.60352 15.7422 6.83203 15.4961 7.15723 15.4961H13.0195ZM16.3857 12.8506C16.6934 12.8506 16.9307 13.0879 16.9307 13.4043C16.9307 13.7031 16.6934 13.9316 16.3857 13.9316H7.15723C6.83203 13.9316 6.60352 13.7031 6.60352 13.4043C6.60352 13.0879 6.83203 12.8506 7.15723 12.8506H16.3857ZM16.3857 10.2051C16.6934 10.2051 16.9307 10.4336 16.9307 10.7324C16.9307 11.04 16.6934 11.2861 16.3857 11.2861H7.15723C6.83203 11.2861 6.60352 11.04 6.60352 10.7324C6.60352 10.4336 6.83203 10.2051 7.15723 10.2051H16.3857Z" fill="black"/>
</svg>
