<svg width="24" height="24" viewBox="0 0 24 24" fill="none" xmlns="http://www.w3.org/2000/svg">
<path d="M12.0001 13.125L7.9001 9.02501C7.71676 8.84168 7.50426 8.75001 7.2626 8.75001C7.02093 8.75001 6.80843 8.84168 6.6251 9.02501C6.44176 9.20834 6.3501 9.42085 6.3501 9.66251C6.3501 9.90418 6.44176 10.1167 6.6251 10.3L11.3751 15.05C11.5584 15.2333 11.7668 15.325 12.0001 15.325C12.2334 15.325 12.4418 15.2333 12.6251 15.05L17.3751 10.3C17.5584 10.1167 17.6501 9.90835 17.6501 9.67501C17.6501 9.44168 17.5584 9.23335 17.3751 9.05001C17.1918 8.86668 16.9793 8.77501 16.7376 8.77501C16.4959 8.77501 16.2834 8.86668 16.1001 9.05001L12.0001 13.125Z" fill="#111111"/>
</svg>
