<svg width="24" height="24" viewBox="0 0 24 24" fill="none" xmlns="http://www.w3.org/2000/svg">
<path d="M12.3916 3C17.3398 3 21.3564 7.0166 21.3564 11.9648C21.3564 16.9131 17.3398 20.9297 12.3916 20.9297C7.44336 20.9297 3.42676 16.9131 3.42676 11.9648C3.42676 7.0166 7.44336 3 12.3916 3ZM12.3916 4.49414C8.26074 4.49414 4.9209 7.83398 4.9209 11.9648C4.9209 16.0957 8.26074 19.4355 12.3916 19.4355C16.5225 19.4355 19.8623 16.0957 19.8623 11.9648C19.8623 7.83398 16.5225 4.49414 12.3916 4.49414ZM12.6553 10.3828C13.1035 10.3828 13.3408 10.6992 13.3408 11.1738V15.6475H14.4307C14.791 15.6475 15.0723 15.9199 15.0723 16.2627C15.0723 16.623 14.791 16.8867 14.4307 16.8867H10.8535C10.4932 16.8867 10.2119 16.623 10.2119 16.2627C10.2119 15.9199 10.4932 15.6475 10.8535 15.6475H11.9434V11.6221H11.0029C10.6426 11.6221 10.3613 11.3584 10.3613 10.998C10.3613 10.6553 10.6426 10.3828 11.0029 10.3828H12.6553ZM12.3125 6.62109C12.9541 6.62109 13.4551 7.13086 13.4551 7.77246C13.4551 8.41406 12.9541 8.92383 12.3125 8.92383C11.6797 8.92383 11.1699 8.41406 11.1699 7.77246C11.1699 7.13086 11.6797 6.62109 12.3125 6.62109Z" fill="black"/>
</svg>
