<svg width="26" height="24" viewBox="0 0 26 24" fill="none" xmlns="http://www.w3.org/2000/svg">
<path d="M11.9648 3C16.9131 3 20.9297 7.0166 20.9297 11.9648C20.9297 16.9131 16.9131 20.9297 11.9648 20.9297C7.0166 20.9297 3 16.9131 3 11.9648C3 7.0166 7.0166 3 11.9648 3ZM11.9648 4.49414C7.83398 4.49414 4.49414 7.83398 4.49414 11.9648C4.49414 16.0957 7.83398 19.4355 11.9648 19.4355C16.0957 19.4355 19.4355 16.0957 19.4355 11.9648C19.4355 7.83398 16.0957 4.49414 11.9648 4.49414ZM14.2236 7.87793C14.6104 7.87793 14.874 8.13281 14.874 8.50195C14.874 8.7041 14.8389 8.82715 14.6631 9.06445L10.6289 14.6631V14.7334H14.5752C14.9092 14.7334 15.1641 14.9531 15.1641 15.3135C15.1641 15.665 14.9092 15.8848 14.5752 15.8848H9.4248C9.04688 15.8848 8.79199 15.6387 8.79199 15.2871C8.79199 15.0938 8.83594 14.9707 9.0293 14.6982L13.0723 9.09961V9.0293H9.3457C9.01172 9.0293 8.76562 8.80957 8.76562 8.44922C8.76562 8.09766 9.01172 7.87793 9.3457 7.87793H14.2236Z" fill="black"/>
</svg>
