<svg width="24" height="24" viewBox="0 0 24 24" fill="none" xmlns="http://www.w3.org/2000/svg">
<path d="M3.86621 16.6348C4.48145 16.6348 4.97363 17.127 4.97363 17.7334C4.97363 18.3486 4.48145 18.8408 3.86621 18.8408C3.25098 18.8408 2.75879 18.3486 2.75879 17.7334C2.75879 17.127 3.25098 16.6348 3.86621 16.6348ZM19.748 17.0303C20.1436 17.0303 20.4688 17.3379 20.4688 17.7334C20.4688 18.1377 20.1436 18.4453 19.748 18.4453H7.75098C7.34668 18.4453 7.03906 18.1377 7.03906 17.7334C7.03906 17.3379 7.34668 17.0303 7.75098 17.0303H19.748ZM3.86621 11.3174C4.48145 11.3174 4.97363 11.8096 4.97363 12.4248C4.97363 13.04 4.48145 13.5322 3.86621 13.5322C3.25098 13.5322 2.75879 13.04 2.75879 12.4248C2.75879 11.8096 3.25098 11.3174 3.86621 11.3174ZM19.748 11.7129C20.1436 11.7129 20.4688 12.0293 20.4688 12.4248C20.4688 12.8203 20.1436 13.1279 19.748 13.1279H7.75098C7.34668 13.1279 7.03906 12.8203 7.03906 12.4248C7.03906 12.0293 7.34668 11.7129 7.75098 11.7129H19.748ZM3.86621 6C4.48145 6 4.97363 6.50098 4.97363 7.10742C4.97363 7.72266 4.48145 8.21484 3.86621 8.21484C3.25098 8.21484 2.75879 7.72266 2.75879 7.10742C2.75879 6.50098 3.25098 6 3.86621 6ZM19.748 6.4043C20.1436 6.4043 20.4688 6.71191 20.4688 7.10742C20.4688 7.51172 20.1436 7.81934 19.748 7.81934H7.75098C7.34668 7.81934 7.03906 7.51172 7.03906 7.10742C7.03906 6.71191 7.34668 6.4043 7.75098 6.4043H19.748Z" fill="black"/>
</svg>
