<svg width="24" height="24" viewBox="0 0 24 24" fill="none" xmlns="http://www.w3.org/2000/svg">
<path fill-rule="evenodd" clip-rule="evenodd" d="M8.17317 2.7612C9.38642 2.25866 10.6868 2 12 2C13.3132 2 14.6136 2.25866 15.8268 2.7612C17.0401 3.26375 18.1425 4.00035 19.0711 4.92893C19.9997 5.85752 20.7362 6.95991 21.2388 8.17317C21.7413 9.38642 22 10.6868 22 12C22 13.3132 21.7413 14.6136 21.2388 15.8268C20.7362 17.0401 19.9997 18.1425 19.0711 19.0711C18.1425 19.9997 17.0401 20.7362 15.8268 21.2388C14.6136 21.7413 13.3132 22 12 22C10.6868 22 9.38642 21.7413 8.17317 21.2388C6.95991 20.7362 5.85752 19.9997 4.92893 19.0711C4.00035 18.1425 3.26375 17.0401 2.7612 15.8268C2.25866 14.6136 2 13.3132 2 12C2 10.6868 2.25866 9.38642 2.7612 8.17317C3.26375 6.95991 4.00035 5.85752 4.92893 4.92893C5.85752 4.00035 6.95991 3.26375 8.17317 2.7612ZM12 4C10.9494 4 9.90914 4.20693 8.93853 4.60896C7.96793 5.011 7.08601 5.60028 6.34315 6.34315C5.60028 7.08601 5.011 7.96793 4.60896 8.93853C4.20693 9.90914 4 10.9494 4 12C4 13.0506 4.20693 14.0909 4.60896 15.0615C5.011 16.0321 5.60028 16.914 6.34315 17.6569C7.08601 18.3997 7.96793 18.989 8.93853 19.391C9.90914 19.7931 10.9494 20 12 20C13.0506 20 14.0909 19.7931 15.0615 19.391C16.0321 18.989 16.914 18.3997 17.6569 17.6569C18.3997 16.914 18.989 16.0321 19.391 15.0615C19.7931 14.0909 20 13.0506 20 12C20 10.9494 19.7931 9.90914 19.391 8.93853C18.989 7.96793 18.3997 7.08602 17.6569 6.34315C16.914 5.60028 16.0321 5.011 15.0615 4.60896C14.0909 4.20693 13.0506 4 12 4ZM10.4748 6.34495C10.9742 6.09784 11.5241 5.97003 12.0813 5.97157C12.6385 5.97312 13.1877 6.10398 13.6857 6.35386C14.1838 6.60373 14.617 6.9658 14.9513 7.41156C15.2856 7.85731 15.5119 8.37459 15.6123 8.92266C15.7128 9.47073 15.6846 10.0346 15.5301 10.57C15.3756 11.1053 15.0989 11.5975 14.7218 12.0077C14.3448 12.4179 13.8776 12.7351 13.3572 12.9341C13.3487 12.9373 13.3403 12.9404 13.3317 12.9434C13.2295 12.9794 13.1417 13.0476 13.0816 13.1378C13.0214 13.2279 12.9923 13.3352 12.9984 13.4434C13.0297 13.9948 12.608 14.4672 12.0566 14.4984C11.5052 14.5297 11.0329 14.1081 11.0016 13.5567C10.9709 13.0156 11.1169 12.4793 11.4175 12.0284C11.7149 11.5822 12.1479 11.2436 12.6523 11.0624C12.8798 10.9737 13.084 10.8341 13.2493 10.6543C13.4169 10.472 13.5399 10.2532 13.6086 10.0153C13.6772 9.77737 13.6897 9.52674 13.6451 9.28316C13.6005 9.03957 13.4999 8.80967 13.3513 8.61156C13.2027 8.41344 13.0102 8.25252 12.7888 8.14147C12.5675 8.03041 12.3234 7.97225 12.0758 7.97156C11.8281 7.97088 11.5837 8.02768 11.3617 8.13751C11.1398 8.24734 10.9463 8.40719 10.7967 8.60447C10.4628 9.04445 9.83555 9.13052 9.39557 8.7967C8.95559 8.46289 8.86952 7.8356 9.20334 7.39561C9.54013 6.95172 9.97535 6.59206 10.4748 6.34495ZM12 16C12.5523 16 13 16.4477 13 17V17.01C13 17.5623 12.5523 18.01 12 18.01C11.4477 18.01 11 17.5623 11 17.01V17C11 16.4477 11.4477 16 12 16Z" fill="#111111"/>
</svg>
