<svg width="26" height="24" viewBox="0 0 26 24" fill="none" xmlns="http://www.w3.org/2000/svg">
<path d="M11.9648 3C16.9131 3 20.9297 7.0166 20.9297 11.9648C20.9297 16.9131 16.9131 20.9297 11.9648 20.9297C7.0166 20.9297 3 16.9131 3 11.9648C3 7.0166 7.0166 3 11.9648 3ZM11.9648 4.49414C7.83398 4.49414 4.49414 7.83398 4.49414 11.9648C4.49414 16.0957 7.83398 19.4355 11.9648 19.4355C16.0957 19.4355 19.4355 16.0957 19.4355 11.9648C19.4355 7.83398 16.0957 4.49414 11.9648 4.49414ZM11.9473 7.71094C12.4307 7.71094 12.7646 7.94824 12.9316 8.40527L15.4014 15.041C15.4629 15.2344 15.498 15.3574 15.498 15.498C15.498 15.8496 15.2344 16.1045 14.8477 16.1045C14.5225 16.1045 14.3027 15.9463 14.1709 15.542L13.5293 13.6699H10.3828L9.74121 15.542C9.60938 15.9551 9.38086 16.1045 9.06445 16.1045C8.66895 16.1045 8.41406 15.8584 8.41406 15.4893C8.41406 15.3574 8.44043 15.2344 8.51074 15.041L10.9717 8.40527C11.1475 7.94824 11.4727 7.71094 11.9473 7.71094ZM10.7344 12.6152H13.1689L12 9.21387H11.9033L10.7344 12.6152Z" fill="black"/>
</svg>
