<svg width="26" height="24" viewBox="0 0 26 24" fill="none" xmlns="http://www.w3.org/2000/svg">
<path d="M18.7588 2C20.2178 2 21.1934 2.94043 21.1934 4.3291V19.4814C21.1934 20.8701 20.2178 21.8018 18.7588 21.8018H8.94141C7.49121 21.8018 6.50684 20.8701 6.50684 19.4814V14.252H7.92188V19.2441C7.92188 19.9648 8.37012 20.3867 9.12598 20.3867H18.583C19.3389 20.3867 19.7783 19.9648 19.7783 19.2441V4.56641C19.7783 3.8457 19.3389 3.41504 18.583 3.41504H9.12598C8.37012 3.41504 7.92188 3.8457 7.92188 4.56641V9.5498H6.50684V4.3291C6.50684 2.94043 7.49121 2 8.94141 2H18.7588ZM10.4795 8.28418C10.6729 8.28418 10.8135 8.35449 10.9453 8.48633L13.7402 11.3867C13.916 11.5625 13.9688 11.7119 13.9688 11.8965C13.9688 12.0723 13.916 12.2305 13.7402 12.4062L10.9453 15.2979C10.8135 15.4297 10.6729 15.5088 10.4795 15.5088C10.1279 15.5088 9.86426 15.2275 9.86426 14.8672C9.86426 14.7002 9.93457 14.5156 10.0752 14.3926L11.5254 13.0303L12.0527 12.5293L10.7344 12.5908H3.68555C3.31641 12.5908 3 12.2744 3 11.8965C3 11.5186 3.31641 11.1934 3.68555 11.1934H10.7344L12.0615 11.2549L11.5254 10.7539L10.0752 9.40039C9.93457 9.27734 9.86426 9.08398 9.86426 8.91699C9.86426 8.54785 10.1279 8.28418 10.4795 8.28418Z" fill="black"/>
</svg>
