<svg width="24" height="24" viewBox="0 0 24 24" fill="none" xmlns="http://www.w3.org/2000/svg">
<path fill-rule="evenodd" clip-rule="evenodd" d="M8.58579 2.58579C8.96086 2.21071 9.46957 2 10 2H14C14.5304 2 15.0391 2.21071 15.4142 2.58579C15.7893 2.96086 16 3.46957 16 4V6H18.9883C18.9953 5.99993 19.0024 5.99993 19.0095 6H20C20.5523 6 21 6.44772 21 7C21 7.55228 20.5523 8 20 8H19.9201L18.9997 19.0458C18.9878 19.8249 18.6731 20.5695 18.1213 21.1213C17.5587 21.6839 16.7957 22 16 22H8C7.20435 22 6.44129 21.6839 5.87868 21.1213C5.32687 20.5695 5.01223 19.8249 5.00035 19.0458L4.07987 8H4C3.44772 8 3 7.55228 3 7C3 6.44772 3.44772 6 4 6H4.99054C4.9976 5.99993 5.00466 5.99993 5.0117 6H8V4C8 3.46957 8.21071 2.96086 8.58579 2.58579ZM6.0868 8L6.99655 18.917C6.99885 18.9446 7 18.9723 7 19C7 19.2652 7.10536 19.5196 7.29289 19.7071C7.48043 19.8946 7.73478 20 8 20H16C16.2652 20 16.5196 19.8946 16.7071 19.7071C16.8946 19.5196 17 19.2652 17 19C17 18.9723 17.0012 18.9446 17.0035 18.917L17.9132 8H6.0868ZM14 6H10V4H14V6ZM10 10C10.5523 10 11 10.4477 11 11V17C11 17.5523 10.5523 18 10 18C9.44772 18 9 17.5523 9 17V11C9 10.4477 9.44772 10 10 10ZM14 10C14.5523 10 15 10.4477 15 11V17C15 17.5523 14.5523 18 14 18C13.4477 18 13 17.5523 13 17V11C13 10.4477 13.4477 10 14 10Z" fill="#111111"/>
</svg>
