<svg width="26" height="24" viewBox="0 0 26 24" fill="none" xmlns="http://www.w3.org/2000/svg">
<path d="M3.71191 4C4.09863 4 4.41504 4.3252 4.41504 4.70312V12.5605L7.15723 9.77441C7.55273 9.36133 7.93066 9.19434 8.34375 9.19434C8.75684 9.19434 9.14355 9.37891 9.53027 9.77441L12.7646 13.0879C12.8438 13.167 12.9316 13.2109 13.002 13.2109C13.0811 13.2109 13.1689 13.1582 13.248 13.0879L16.7197 9.58984L15.2607 8.13086C14.9443 7.81445 15.1377 7.41016 15.5859 7.28711L20.7275 5.99512C21.123 5.88965 21.4746 6.22363 21.3691 6.62793L20.0684 11.7783C19.9541 12.2266 19.541 12.4199 19.2246 12.1035L17.7744 10.6533L14.1973 14.2568C13.8018 14.6436 13.4238 14.8369 13.002 14.8369C12.5889 14.8369 12.1934 14.6523 11.8154 14.2568L8.58105 10.9434C8.50195 10.8643 8.42285 10.8203 8.34375 10.8203C8.26465 10.8203 8.18555 10.8643 8.10645 10.9434L4.41504 14.7051V18.5986C4.41504 18.7832 4.47656 18.8447 4.66113 18.8447H21.1846C21.5713 18.8447 21.8965 19.1611 21.8965 19.5479C21.8965 19.9434 21.5713 20.251 21.1846 20.251H3.70312C3.28125 20.251 3 19.9785 3 19.5566V4.70312C3 4.3252 3.31641 4 3.71191 4Z" fill="black"/>
</svg>
