<svg width="26" height="24" viewBox="0 0 26 24" fill="none" xmlns="http://www.w3.org/2000/svg">
<path d="M10.6797 5C11.1104 5 11.4531 5.31641 11.4531 5.75586C11.4531 5.9668 11.374 6.16895 11.2334 6.30957L9.26465 8.31348L6.31152 11.0117L8.42969 10.8799H19.5479C20.0049 10.8799 20.3213 11.2051 20.3213 11.6621C20.3213 12.1191 20.0049 12.4443 19.5479 12.4443H8.42969L6.31152 12.3125L9.26465 15.0107L11.2334 17.0146C11.374 17.1465 11.4531 17.3574 11.4531 17.5684C11.4531 18.0078 11.1104 18.3242 10.6797 18.3242C10.4688 18.3242 10.2842 18.2451 10.1084 18.0781L4.27246 12.251C4.09668 12.084 4 11.8818 4 11.6621C4 11.4424 4.09668 11.2402 4.27246 11.0732L10.0908 5.26367C10.2842 5.07031 10.4688 5 10.6797 5Z" fill="black"/>
</svg>
