<svg width="24" height="24" viewBox="0 0 24 24" fill="none" xmlns="http://www.w3.org/2000/svg">
<path fill-rule="evenodd" clip-rule="evenodd" d="M11.9995 4C11.4691 4 10.9604 4.21071 10.5853 4.58579C10.2102 4.96086 9.99949 5.46957 9.99949 6V7H13.9995V6C13.9995 5.46957 13.7888 4.96086 13.4137 4.58579C13.0386 4.21071 12.5299 4 11.9995 4ZM15.9995 7V6C15.9995 4.93913 15.5781 3.92172 14.8279 3.17157C14.0778 2.42143 13.0604 2 11.9995 2C10.9386 2 9.92121 2.42143 9.17107 3.17157C8.42092 3.92172 7.99949 4.93913 7.99949 6V7H6.33042M7.99949 9H6.3303C6.18612 8.99998 6.04351 9.03115 5.9125 9.09135C5.78149 9.15156 5.66505 9.23938 5.57115 9.3488C5.47726 9.45822 5.40814 9.58666 5.36853 9.72529C5.32894 9.86389 5.31977 10.0094 5.34166 10.1519C5.34166 10.1518 5.34167 10.1519 5.34166 10.1519L6.59666 18.3038C6.66927 18.776 6.90853 19.2068 7.2711 19.5179C7.63365 19.8289 8.09558 20 8.5733 20C8.57328 20 8.57332 20 8.5733 20H15.4253C15.9031 20.0001 16.3655 19.8292 16.7282 19.5181C17.091 19.207 17.3303 18.7763 17.4029 18.304L18.6579 10.152C18.6579 10.1521 18.6579 10.1519 18.6579 10.152C18.6798 10.0095 18.6707 9.86388 18.6311 9.72529C18.5915 9.58665 18.5223 9.45822 18.4284 9.3488C18.3346 9.23938 18.2181 9.15156 18.0871 9.09135C17.9561 9.03115 17.8136 8.99998 17.6694 9H15.9995V11C15.9995 11.5523 15.5518 12 14.9995 12C14.4472 12 13.9995 11.5523 13.9995 11V9H9.99949V11C9.99949 11.5523 9.55178 12 8.99949 12C8.44721 12 7.99949 11.5523 7.99949 11V9ZM15.9995 7H17.6692C17.6691 7 17.6692 7 17.6692 7C18.1017 6.99997 18.5292 7.09345 18.9222 7.27405C19.3153 7.45467 19.6646 7.71814 19.9463 8.0464C20.2279 8.37467 20.4353 8.75997 20.5541 9.17588C20.6729 9.59179 20.7004 10.0285 20.6347 10.456L19.3797 18.608C19.3797 18.6081 19.3797 18.6079 19.3797 18.608C19.2344 19.5525 18.7557 20.414 18.0303 21.0362C17.305 21.6583 16.3809 22.0002 15.4253 22C15.4252 22 15.4254 22 15.4253 22H8.5733C7.61783 22 6.69389 21.6579 5.96876 21.0357C5.24366 20.4136 4.7652 19.5525 4.61994 18.6082C4.61994 18.6081 4.61995 18.6082 4.61994 18.6082L3.36494 10.4562C3.2992 10.0286 3.32665 9.59179 3.44548 9.17588C3.5643 8.75997 3.77166 8.37467 4.05334 8.0464C4.33501 7.71814 4.68435 7.45467 5.07738 7.27405C5.47039 7.09345 5.89791 6.99997 6.33042 7" fill="#111111"/>
</svg>
