<svg width="24" height="24" viewBox="0 0 24 24" fill="none" xmlns="http://www.w3.org/2000/svg">
<path fill-rule="evenodd" clip-rule="evenodd" d="M8.41111 5.01109C7.86202 4.95252 7.30675 5.00827 6.78026 5.17484C6.25378 5.3414 5.76748 5.61518 5.352 5.97892C4.93652 6.34265 4.60086 6.78848 4.36614 7.28832C4.13142 7.78816 4.00274 8.33118 3.9882 8.8832C3.97366 9.43521 4.07358 9.98426 4.28165 10.4958C4.48973 11.0073 4.80146 11.4701 5.19721 11.8553L5.20353 11.8614L5.2035 11.8614L11.9998 18.5925L18.7961 11.8614C18.8168 11.8409 18.8382 11.8215 18.8602 11.8031C19.2239 11.4301 19.5115 10.9893 19.7064 10.5055C19.9121 9.99491 20.0102 9.44734 19.9945 8.89708C19.9789 8.34682 19.8498 7.80571 19.6154 7.30762C19.381 6.80954 19.0463 6.36519 18.6323 6.0024C18.2183 5.63961 17.7339 5.36618 17.2093 5.19922C16.6847 5.03227 16.1314 4.97538 15.5838 5.03213C15.0363 5.08887 14.5063 5.25802 14.0272 5.52899C13.548 5.79997 13.1299 6.16693 12.7991 6.60691C12.6096 6.85892 12.3123 7.00681 11.997 7.00593C11.6817 7.00505 11.3853 6.85552 11.1972 6.60245C10.8678 6.15925 10.4502 5.78906 9.97071 5.51518C9.49121 5.2413 8.9602 5.06967 8.41111 5.01109ZM20.1345 13.3508L12.7035 20.7104C12.3138 21.0964 11.6859 21.0964 11.2961 20.7104L3.7991 13.2854C3.20704 12.7084 2.7406 12.0152 2.42907 11.2494C2.11696 10.4821 1.96709 9.65855 1.9889 8.83053C2.01071 8.00251 2.20373 7.18798 2.5558 6.43822C2.90787 5.68846 3.41137 5.01972 4.0346 4.47411C4.65782 3.9285 5.38726 3.51784 6.17699 3.26799C6.96671 3.01814 7.79962 2.93451 8.62325 3.02238C9.44689 3.11024 10.2434 3.36768 10.9627 3.7785C11.3367 3.99215 11.6856 4.24487 12.0039 4.53174C12.3219 4.24834 12.67 3.99885 13.0427 3.78808C13.7614 3.38162 14.5563 3.12789 15.3777 3.04278C16.199 2.95766 17.029 3.04299 17.8159 3.29343C18.6027 3.54386 19.3294 3.954 19.9504 4.49819C20.5714 5.04238 21.0735 5.7089 21.4251 6.45603C21.7766 7.20316 21.9702 8.01482 21.9937 8.84021C22.0172 9.66559 21.8701 10.4869 21.5615 11.2529C21.253 12.0188 20.7896 12.7127 20.2005 13.2914C20.1792 13.3123 20.1572 13.3321 20.1345 13.3508Z" fill="#111111"/>
</svg>
